<?xml version="1.0" encoding="utf-8"?>
<!-- Generator: Adobe Illustrator 19.0.0, SVG Export Plug-In . SVG Version: 6.00 Build 0)  -->
<svg version="1.1" id="Layer_1" xmlns="http://www.w3.org/2000/svg" xmlns:xlink="http://www.w3.org/1999/xlink" x="0px" y="0px"
	 viewBox="0 0 80 50" style="enable-background:new 0 0 80 50;" xml:space="preserve">
<style type="text/css">
	.st0{fill:rgba(35, 35, 35, .7);}
	.st1{fill-rule:evenodd;clip-rule:evenodd;fill:rgba(35, 35, 35, .7);}
</style>
<g id="XMLID_10_">
	<g id="XMLID_11_">
		<path id="XMLID_12_" class="st0" d="M12.4,41.3C12,41,11.9,40.5,11.9,40V14.4H8c-0.3,0-0.5-0.1-0.6-0.3s-0.3-0.4-0.3-0.6v-3.1
			c0-0.3,0.1-0.5,0.3-0.6S7.8,9.6,8,9.6h7.1c0.5,0,0.9,0.2,1.3,0.5c0.4,0.4,0.5,0.8,0.5,1.3v25.6h3.8c0.3,0,0.5,0.1,0.6,0.3
			c0.2,0.2,0.3,0.4,0.3,0.6v3.1c0,0.3-0.1,0.5-0.3,0.6c-0.2,0.2-0.4,0.3-0.6,0.3h-7.1C13.2,41.8,12.7,41.7,12.4,41.3z"/>
		<path id="XMLID_15_" class="st0" d="M28.8,41.7c-1.4-0.5-2.7-1.1-3.8-2c-0.1-0.1-0.2-0.3-0.3-0.4s0-0.4,0-0.5
			c0.2-0.4,0.7-1.3,1.4-2.7c0.2-0.3,0.5-0.5,0.8-0.5c0.2,0,0.4,0.1,0.6,0.2c1,0.7,2,1.2,2.8,1.5c0.9,0.3,1.8,0.5,2.8,0.5
			c1.2,0,2.1-0.2,2.7-0.7c0.6-0.4,0.9-1,0.9-1.8c0-0.6-0.3-1.2-0.8-1.5c-0.5-0.4-1.5-0.8-3-1.4l-1.5-0.6c-1.2-0.5-2.3-1-3.2-1.5
			c-0.9-0.5-1.6-1.3-2.2-2.3c-0.6-1-0.9-2.1-0.9-3.6c0-2.2,0.7-4,2.2-5.3c1.5-1.3,3.4-2,5.9-2c1.4,0,2.8,0.2,4.2,0.7
			c1.4,0.5,2.6,1.1,3.6,1.9c0.1,0.1,0.2,0.3,0.3,0.4c0,0.2,0,0.4,0,0.5c-0.3,0.6-0.7,1.5-1.3,2.7c-0.2,0.3-0.4,0.5-0.8,0.5
			c-0.2,0-0.4-0.1-0.6-0.2c-1.9-1.3-3.7-1.9-5.4-1.9c-1,0-1.7,0.2-2.3,0.6c-0.5,0.4-0.8,1-0.8,1.7c0,0.7,0.3,1.3,0.9,1.8
			c0.6,0.5,1.8,1.1,3.4,1.7c1.6,0.6,2.8,1.1,3.7,1.6c0.9,0.4,1.7,1.1,2.4,2.1c0.7,0.9,1.1,2.2,1.1,3.6c0,1.5-0.4,2.8-1.1,3.9
			c-0.7,1.1-1.8,2-3.1,2.6c-1.3,0.6-2.9,0.9-4.6,0.9C31.7,42.4,30.2,42.1,28.8,41.7z"/>
	</g>
	<g id="XMLID_13_">
		<path id="XMLID_9_" class="st1" d="M48.5,33.2l3.4,6.4c0.3,0.6,0.1,1.4-0.5,1.8l-1.7,0.9l-4-7.5l0.5-0.3l3.7,7l1.2-0.6
			c0.3-0.2,0.5-0.6,0.3-1L48,33.5L48.5,33.2z"/>
		<path id="XMLID_8_" class="st1" d="M59.5,20c1.2-0.1,2.4,0.5,3,1.7l0.2,0.4c0.6,1.1,0.4,2.5-0.3,3.5L59.5,20z"/>
		<path id="XMLID_7_" class="st1" d="M46.6,26.6l8.5-10.7c0.7-0.8,2.1-0.2,2.6,0.7L64.3,29c0.5,0.9,0.2,2.5-0.8,2.5l-13.8,0.8
			c0.1-0.2,0.1-0.4,0.1-0.6L63.4,31c0.1,0,0.1,0,0.2-0.1c0.4-0.3,0.4-1.2,0.2-1.6l-6.6-12.4c-0.1-0.2-0.3-0.4-0.5-0.5
			c-0.3-0.2-0.9-0.5-1.1-0.1l-8.5,10.7C47,26.8,46.8,26.7,46.6,26.6L46.6,26.6z"/>
		<path id="XMLID_17_" class="st1" d="M42.1,28.9l3.9-2.1c0.5-0.3,1.1-0.1,1.3,0.4l2.3,4.3c0.3,0.5,0.1,1.1-0.4,1.3l-3.9,2.1
			c-0.5,0.3-1.1,0.1-1.3-0.4l-2.3-4.3C41.5,29.7,41.6,29.1,42.1,28.9L42.1,28.9z M42.9,28.9c-0.2,0.1-0.2,0.3-0.1,0.4
			c0.1,0.2,0.3,0.2,0.5,0.1l2.7-1.4c0.2-0.1,0.2-0.3,0.1-0.4c-0.1-0.2-0.3-0.2-0.4-0.1L42.9,28.9L42.9,28.9z M43.4,29.9
			c-0.2,0.1-0.2,0.3-0.1,0.4c0.1,0.2,0.3,0.2,0.4,0.1l2.7-1.4c0.2-0.1,0.2-0.3,0.1-0.4c-0.1-0.2-0.3-0.2-0.5-0.1L43.4,29.9z"/>
		<path id="XMLID_3_" class="st1" d="M62,18.2c1.7-0.9,3.8-0.3,4.7,1.5c0.9,1.7,0.3,3.8-1.4,4.7c0,0-0.1,0-0.1,0.1
			c1.6-0.9,2.2-3,1.4-4.7c-0.9-1.7-2.9-2.3-4.6-1.5C61.9,18.3,62,18.2,62,18.2z"/>
		<path id="XMLID_2_" class="st1" d="M62.1,15.8c2.7-1.4,6.1-0.4,7.6,2.3c1.4,2.7,0.4,6.1-2.3,7.6c-0.1,0-0.1,0.1-0.2,0.1
			c2.6-1.5,3.6-4.8,2.2-7.5c-1.4-2.7-4.7-3.7-7.4-2.4C62,15.8,62.1,15.8,62.1,15.8z"/>
		<path id="XMLID_1_" class="st1" d="M62.8,13.6c3.5-1.9,7.9-0.5,9.8,3c1.9,3.5,0.5,7.9-3,9.8c-0.1,0-0.2,0.1-0.2,0.1
			c3.4-1.9,4.6-6.2,2.8-9.6c-1.8-3.5-6.1-4.8-9.5-3.1C62.7,13.6,62.8,13.6,62.8,13.6z"/>
	</g>
</g>
</svg>
